<svg width="500" height="500" viewBox="0 0 500 500" role="img" xmlns="http://www.w3.org/2000/svg">
  <title>JudgeNet icon mark</title>
  <desc>JudgeNet logo: scales of justice with AI consensus node mesh, brand palette.</desc>

  <rect x="50" y="50" width="400" height="400" rx="48" fill="#000000"/>
  <rect x="50" y="50" width="400" height="400" rx="48" fill="none" stroke="#282B5D" stroke-width="2"/>
  <rect x="66" y="66" width="368" height="368" rx="36" fill="none" stroke="#282B5D" stroke-width="0.75" opacity="0.5"/>

  <line x1="190" y1="216" x2="310" y2="216" stroke="#CACACA" stroke-width="3" stroke-linecap="round"/>
  <circle cx="250" cy="216" r="7" fill="#110FFF"/>
  <circle cx="250" cy="216" r="4" fill="#BCA2FF"/>
  <line x1="250" y1="223" x2="250" y2="250" stroke="#CACACA" stroke-width="2.5" stroke-linecap="round"/>
  <rect x="226" y="250" width="48" height="8" rx="4" fill="#282B5D"/>

  <line x1="190" y1="216" x2="190" y2="238" stroke="#CACACA" stroke-width="1.5" stroke-linecap="round"/>
  <line x1="176" y1="238" x2="204" y2="238" stroke="#CACACA" stroke-width="1.5" stroke-linecap="round"/>

  <line x1="310" y1="216" x2="310" y2="234" stroke="#CACACA" stroke-width="1.5" stroke-linecap="round"/>
  <line x1="296" y1="234" x2="324" y2="234" stroke="#CACACA" stroke-width="1.5" stroke-linecap="round"/>

  <circle cx="190" cy="228" r="8" fill="#282B5D" stroke="#110FFF" stroke-width="1.5"/>
  <text x="190" y="232" font-family="Helvetica Neue,Arial,sans-serif" font-weight="900" font-size="9" fill="#BCA2FF" text-anchor="middle">!</text>

  <circle cx="310" cy="225" r="8" fill="#282B5D" stroke="#110FFF" stroke-width="1.5"/>
  <text x="310" y="229" font-family="Helvetica Neue,Arial,sans-serif" font-weight="900" font-size="9" fill="#BCA2FF" text-anchor="middle">$</text>

  <circle cx="250" cy="162" r="5" fill="#110FFF"/>
  <circle cx="210" cy="176" r="5" fill="#110FFF"/>
  <circle cx="290" cy="176" r="5" fill="#110FFF"/>
  <circle cx="182" cy="198" r="4" fill="#BCA2FF" opacity="0.8"/>
  <circle cx="318" cy="198" r="4" fill="#BCA2FF" opacity="0.8"/>
  <circle cx="226" cy="190" r="3.5" fill="#BCA2FF" opacity="0.6"/>
  <circle cx="274" cy="190" r="3.5" fill="#BCA2FF" opacity="0.6"/>

  <line x1="250" y1="162" x2="210" y2="176" stroke="#110FFF" stroke-width="1.5" stroke-linecap="round"/>
  <line x1="250" y1="162" x2="290" y2="176" stroke="#110FFF" stroke-width="1.5" stroke-linecap="round"/>
  <line x1="210" y1="176" x2="290" y2="176" stroke="#110FFF" stroke-width="1" stroke-linecap="round"/>
  <line x1="210" y1="176" x2="182" y2="198" stroke="#BCA2FF" stroke-width="1" stroke-linecap="round" opacity="0.7"/>
  <line x1="290" y1="176" x2="318" y2="198" stroke="#BCA2FF" stroke-width="1" stroke-linecap="round" opacity="0.7"/>
  <line x1="210" y1="176" x2="226" y2="190" stroke="#BCA2FF" stroke-width="0.75" stroke-linecap="round" opacity="0.5"/>
  <line x1="290" y1="176" x2="274" y2="190" stroke="#BCA2FF" stroke-width="0.75" stroke-linecap="round" opacity="0.5"/>
  <line x1="226" y1="190" x2="182" y2="198" stroke="#BCA2FF" stroke-width="0.75" stroke-linecap="round" opacity="0.4"/>
  <line x1="274" y1="190" x2="318" y2="198" stroke="#BCA2FF" stroke-width="0.75" stroke-linecap="round" opacity="0.4"/>
  <line x1="226" y1="190" x2="274" y2="190" stroke="#BCA2FF" stroke-width="0.5" stroke-linecap="round" opacity="0.3"/>

  <line x1="182" y1="198" x2="190" y2="216" stroke="#CACACA" stroke-width="0.75" stroke-linecap="round" opacity="0.3" stroke-dasharray="3 2"/>
  <line x1="318" y1="198" x2="310" y2="216" stroke="#CACACA" stroke-width="0.75" stroke-linecap="round" opacity="0.3" stroke-dasharray="3 2"/>

  <circle cx="250" cy="142" r="14" fill="#110FFF"/>
  <circle cx="250" cy="142" r="9" fill="#000000"/>
  <circle cx="250" cy="142" r="5" fill="#BCA2FF"/>

  <line x1="250" y1="128" x2="250" y2="120" stroke="#BCA2FF" stroke-width="1.5" stroke-linecap="round" opacity="0.5"/>
  <line x1="264" y1="132" x2="270" y2="126" stroke="#BCA2FF" stroke-width="1.5" stroke-linecap="round" opacity="0.5"/>
  <line x1="236" y1="132" x2="230" y2="126" stroke="#BCA2FF" stroke-width="1.5" stroke-linecap="round" opacity="0.5"/>

  <line x1="250" y1="156" x2="250" y2="162" stroke="#110FFF" stroke-width="1.5" stroke-linecap="round"/>

  <rect x="50" y="50" width="400" height="400" rx="48" fill="none" stroke="#CACACA" stroke-width="0.5" opacity="0.15"/>
</svg>
